CATALOG 0000000000000
FILE "Wangan Dead Heat + Real Arrange (Japan) (Disc 2) (Addition) (Track 1).bin" BINARY
  TRACK 01 MODE1/2352
    INDEX 01 00:00:00
FILE "Wangan Dead Heat + Real Arrange (Japan) (Disc 2) (Addition) (Track 2).bin" BINARY
  TRACK 02 MODE2/2352
    INDEX 00 00:00:00
    INDEX 01 00:06:00
FILE "Wangan Dead Heat + Real Arrange (Japan) (Disc 2) (Addition) (Track 3).bin" BINARY
  TRACK 03 AUDIO
    INDEX 00 00:00:00
    INDEX 01 00:02:00
